<?xml version="1.0" encoding="utf-8"?>
<!-- Generator: Adobe Illustrator 14.0.0, SVG Export Plug-In . SVG Version: 6.00 Build 43363)  -->
<!DOCTYPE svg PUBLIC "-//W3C//DTD SVG 1.1//EN" "http://www.w3.org/Graphics/SVG/1.1/DTD/svg11.dtd">
<svg version="1.1" id="Crossbow" xmlns="http://www.w3.org/2000/svg" xmlns:xlink="http://www.w3.org/1999/xlink" x="0px" y="0px"
	 width="120px" height="90px" viewBox="0 0 120 90" style="enable-background:new 0 0 120 90;" xml:space="preserve">
<style type="text/css">
<![CDATA[
	.st0{fill:none;stroke:#000000;stroke-width:1.5;}
	.st1{fill:none;stroke:#000000;stroke-width:4.5;}
	.st2{fill:none;stroke:#000000;stroke-width:3;}
	.st3{fill:none;stroke:#000000;stroke-width:4;}
]]>
</style>
<path class="st3" d="M27.7,31.2c0,0,21.7-11.3,32.3-11.3c10.6,0,32.3,11.3,32.3,11.3"/>
<polyline class="st0" points="88.9,30.6 60,59.6 31.1,30.6 "/>
<line class="st2" x1="60" y1="65.5" x2="60" y2="74"/>
<line class="st1" x1="60" y1="39" x2="60" y2="67.5"/>
<line class="st2" x1="60" y1="28.5" x2="60" y2="39"/>
<line class="st3" x1="60" y1="19.6" x2="60" y2="32.5"/>
<line class="st0" x1="60" y1="13.9" x2="60" y2="18.7"/>
<polygon points="60,14.9 57,16.2 60,8 63,16.2 "/>
<g>
	<path class="st0" d="M60,69.6L64.7,81c0.2,0.5-0.1,0.9-0.6,0.9h-8.2c-0.5,0-0.8-0.4-0.6-0.9L60,69.6"/>
</g>
</svg>
