<?xml version="1.0" encoding="utf-8"?>
<!-- Generator: Adobe Illustrator 14.0.0, SVG Export Plug-In . SVG Version: 6.00 Build 43363)  -->
<!DOCTYPE svg PUBLIC "-//W3C//DTD SVG 1.1//EN" "http://www.w3.org/Graphics/SVG/1.1/DTD/svg11.dtd">
<svg version="1.1" id="Dragon" xmlns="http://www.w3.org/2000/svg" xmlns:xlink="http://www.w3.org/1999/xlink" x="0px" y="0px"
	 width="120px" height="90px" viewBox="0 0 120 90" style="enable-background:new 0 0 120 90;" xml:space="preserve">
<style type="text/css">
<![CDATA[
	.st0{fill:none;stroke:#000000;stroke-width:0.1;}
]]>
</style>
<path class="st0" d="M78.8,59.9"/>
<path class="st0" d="M78.8,68.1"/>
<path class="st0" d="M78.8,48.7"/>
<path class="st0" d="M78.8,39.9"/>
<path class="st0" d="M78.8,64.4"/>
<path class="st0" d="M78.8,44.4"/>
<polygon points="70,57.1 53.1,46.8 55.3,45.4 53.4,42.2 54.8,39.6 54.8,37.3 53.1,34.6 40.4,42.3 40.4,51.2 66.9,67.4 60,71.6 
	53.1,67.4 58.1,64.3 48.1,58.2 40.4,62.9 40.4,71.8 57.3,82.1 62.7,82.1 79.6,71.8 79.6,62.9 "/>
<polygon points="50.2,19.7 51,14.5 48.9,11.5 48.9,8.4 47.7,11.5 48.9,14.5 45.3,20.6 49.5,27 52.6,22.2 "/>
<polyline points="71.3,44.1 62,49.7 72,55.8 79.6,51.2 79.6,42.3 67.3,34.8 "/>
<path d="M63.5,37.3l6.3-9.4l-3.4-5.1H53.6l-3.4,5.1l6.3,9.4v2.9l-1.3,2.2l3.3,5.7h2.9l3.3-5.7l-1.3-2.2V37.3z M56.7,33l-3.4-5.1
	l1.3-1.9l2.2,2.8V33z M58.9,45.9l-2-3.5l0.8-1.4l1.2,2.1V45.9z M61.1,45.9V43l1.2-2.1l0.8,1.4L61.1,45.9z M63.3,28.7l2.2-2.8
	l1.3,1.9L63.3,33V28.7z"/>
<g>
	<g>
		<polygon points="24.2,23 35.9,16.3 35.9,42.2 		"/>
	</g>
	<g>
		<polygon points="11.7,45 15.6,37.3 34.3,44.9 15.6,51 		"/>
	</g>
	<g>
		<polygon points="24.2,65.3 35.9,47.7 35.9,72 		"/>
	</g>
	<g>
		<polygon points="16.4,35.9 23.1,24.3 34.7,43.3 		"/>
	</g>
	<g>
		<polygon points="16.4,52.4 34.7,46.5 23.1,64.1 		"/>
	</g>
	<g>
		<polygon points="37.5,16.4 44,21.1 52.3,33.2 37.5,42.1 		"/>
	</g>
</g>
<polygon points="69.8,19.7 69,14.5 71.1,11.5 71.1,8.4 72.3,11.5 71.1,14.5 74.7,20.6 70.5,27 67.4,22.2 "/>
<g>
	<g>
		<polygon points="84.1,16.3 95.8,23 84.1,42.2 		"/>
	</g>
	<g>
		<polygon points="85.7,44.9 104.4,37.3 108.4,45 104.4,51 		"/>
	</g>
	<g>
		<polygon points="84.1,47.7 95.8,65.3 84.1,72 		"/>
	</g>
	<g>
		<polygon points="96.9,24.3 103.6,35.9 85.3,43.3 		"/>
	</g>
	<g>
		<polygon points="85.3,46.5 103.6,52.4 96.9,64.1 		"/>
	</g>
	<g>
		<polygon points="67.7,33.2 76,21.1 82.5,16.4 82.5,42.1 		"/>
	</g>
</g>
</svg>
