<?xml version="1.0" encoding="utf-8"?>
<!-- Generator: Adobe Illustrator 14.0.0, SVG Export Plug-In . SVG Version: 6.00 Build 43363)  -->
<!DOCTYPE svg PUBLIC "-//W3C//DTD SVG 1.1//EN" "http://www.w3.org/Graphics/SVG/1.1/DTD/svg11.dtd">
<svg version="1.1" id="Fortress" xmlns="http://www.w3.org/2000/svg" xmlns:xlink="http://www.w3.org/1999/xlink" x="0px" y="0px"
	 width="120px" height="90px" viewBox="0 0 120 90" enable-background="new 0 0 120 90" xml:space="preserve">
<g>
	<path d="M6,71.4l9.9,2.699l2.7,9.9H6V71.4 M0,63.6V90h26.4l-5.6-20.8L0,63.6L0,63.6z"/>
</g>
<g>
	<path d="M18.6,6l-2.7,9.9L6,18.6V6H18.6 M26.4,0H-0.1v26.4l20.8-5.6L26.4,0L26.4,0z"/>
</g>
<g>
	<path d="M114,71.4V84h-12.6l2.699-9.9L114,71.4 M120,63.6L99.2,69.2L93.6,90H120V63.6L120,63.6z"/>
</g>
<g>
	<path d="M114,6v12.6l-9.9-2.7L101.4,6H114 M120,0H93.6L99.2,20.8l20.8,5.6V0L120,0z"/>
</g>
<path d="M99,0h-6v2h6V0L99,0z M90,0h-6v2h6V0L90,0z M81,0h-6v2h6V0L81,0z M72,0h-6v2h6V0L72,0z M63,0h-6v2h6V0L63,0z M54,0h-6v2h6V0
	L54,0z M45,0h-6v2h6V0L45,0z M36,0h-6v2h6V0L36,0z M27,0h-6v2h6V0L27,0z M2,24H0v6h2V24L2,24z M2,33H0v6h2V33L2,33z M2,42H0v6h2V42
	L2,42z M2,51H0v6h2V51L2,51z M2,60H0v6h2V60L2,60z M120,24h-2v6h2V24L120,24z M120,33h-2v6h2V33L120,33z M120,42h-2v6h2V42L120,42z
	 M120,51h-2v6h2V51L120,51z M120,60h-2v6h2V60L120,60z M27,88h-6v2h6V88L27,88z M36,88h-6v2h6V88L36,88z M45,88h-6v2h6V88L45,88z
	 M54,88h-6v2h6V88L54,88z M63,88h-6v2h6V88L63,88z M72,88h-6v2h6V88L72,88z M81,88h-6v2h6V88L81,88z M90,88h-6v2h6V88L90,88z M99,88
	h-6v2h6V88L99,88z"/>
<g>
	<path d="M114,6v78H6V6H114 M118,2H2v86h116V2L118,2z"/>
</g>
</svg>
