<?xml version="1.0" encoding="utf-8"?>
<!-- Generator: Adobe Illustrator 14.0.0, SVG Export Plug-In . SVG Version: 6.00 Build 43363)  -->
<!DOCTYPE svg PUBLIC "-//W3C//DTD SVG 1.1//EN" "http://www.w3.org/Graphics/SVG/1.1/DTD/svg11.dtd">
<svg version="1.1" id="Fortress__x28_Ruined_x29_" xmlns="http://www.w3.org/2000/svg" xmlns:xlink="http://www.w3.org/1999/xlink"
	 x="0px" y="0px" width="120px" height="90px" viewBox="0 0 120 90" style="enable-background:new 0 0 120 90;"
	 xml:space="preserve">
<path d="M105.8,0H94.7v1.6l-0.6,0.2c0,0,0.3,1,0.6,2.4l0,0L94.9,5l0,0c0.9,3.2,2,7.6,2,7.6l4.8-1.3L100.1,5h5.8V0L105.8,0z
	 M102.5,14.2l-4.8,1.3l1.4,5.4l0,0l5.4,1.4l1.3-4.8l-2.6-0.7L102.5,14.2L102.5,14.2z M120,14.1h-5v5.8l-6.3-1.7l-1.3,4.8
	c0,0,3.3,0.9,6.2,1.7v0c0,0,0,0,0,0l0,0c0,0,0,0,0,0l0.1,0v0l4.4,1.2l0.2-0.7h1.6V14.1L120,14.1z M120,0h-11.2v5h6.2v6.1h5V0L120,0z
	"/>
<path d="M99,0h-6v2h6V0L99,0z M90,0h-6v2h6V0L90,0z M81,0h-6v2h6V0L81,0z M72,0h-6v2h6V0L72,0z M63,0h-6v2h6V0L63,0z M54,0h-6v2h6V0
	L54,0z M45,0h-6v2h6V0L45,0z M36,0h-6v2h6V0L36,0z M27,0h-6v2h6V0L27,0z M2,24H0v6h2V24L2,24z M2,33H0v6h2V33L2,33z M2,42H0v6h2V42
	L2,42z M2,51H0v6h2V51L2,51z M2,60H0v6h2V60L2,60z M120,24h-2v6h2V24L120,24z M120,33h-2v6h2V33L120,33z M120,42h-2v6h2V42L120,42z
	 M120,51h-2v6h2V51L120,51z M120,60h-2v6h2V60L120,60z M27,88h-6v2h6V88L27,88z M36,88h-6v2h6V88L36,88z M45,88h-6v2h6V88L45,88z
	 M54,88h-6v2h6V88L54,88z M63,88h-6v2h6V88L63,88z M72,88h-6v2h6V88L72,88z M81,88h-6v2h6V88L81,88z M90,88h-6v2h6V88L90,88z M99,88
	h-6v2h6V88L99,88z"/>
<path d="M14.2,0v5h5.8l-1.7,6.3l4.8,1.3c0,0,1.2-4.4,2-7.6l0,0l0.2-0.8l0,0c0.4-1.4,0.6-2.4,0.6-2.4l-0.6-0.2V0H14.2L14.2,0z
	 M17.5,14.2l-0.7,2.6l-2.6,0.7l1.3,4.8l5.4-1.4l0,0l1.4-5.4L17.5,14.2L17.5,14.2z M0,14.1v11.1h1.6L1.8,26l4.4-1.2v0l0.1,0
	c0,0,0,0,0,0l0,0c0,0,0,0,0,0v0c2.9-0.8,6.2-1.7,6.2-1.7l-1.3-4.8L5,19.9v-5.8H0L0,14.1z M0,0v11.1h5V5h6.2V0H0L0,0z"/>
<path d="M105.8,90v-5h-5.8l1.7-6.3l-4.8-1.3c0,0-1.2,4.4-2,7.6l0,0l-0.2,0.8l0,0c-0.4,1.4-0.6,2.4-0.6,2.4l0.6,0.2V90H105.8
	L105.8,90z M102.5,75.8l0.7-2.6l2.6-0.7l-1.3-4.8l-5.4,1.4l0,0l-1.4,5.4L102.5,75.8L102.5,75.8z M120,75.9V64.7h-1.6l-0.2-0.7
	l-4.4,1.2v0l-0.1,0c0,0,0,0,0,0l0,0c0,0,0,0,0,0v0c-2.9,0.8-6.2,1.7-6.2,1.7l1.3,4.8l6.3-1.7v5.8H120L120,75.9z M120,90V78.9h-5V85
	h-6.2v5H120L120,90z"/>
<path d="M14.2,90h11.1v-1.6l0.6-0.2c0,0-0.3-1-0.6-2.4l0,0L25.1,85l0,0c-0.9-3.2-2-7.6-2-7.6l-4.8,1.3l1.7,6.3h-5.8V90L14.2,90z
	 M17.5,75.8l4.8-1.3l-1.4-5.4l0,0l-5.4-1.4l-1.3,4.8l2.6,0.7L17.5,75.8L17.5,75.8z M0,75.9h5v-5.8l6.3,1.7l1.3-4.8
	c0,0-3.3-0.9-6.2-1.7v0c0,0,0,0,0,0l0,0c0,0,0,0,0,0l-0.1,0v0L1.8,64l-0.2,0.7H0V75.9L0,75.9z M0,90h11.2v-5H5v-6.1H0V90L0,90z"/>
</svg>
