<?xml version="1.0" encoding="utf-8"?>
<!-- Generator: Adobe Illustrator 14.0.0, SVG Export Plug-In . SVG Version: 6.00 Build 43363)  -->
<!DOCTYPE svg PUBLIC "-//W3C//DTD SVG 1.1//EN" "http://www.w3.org/Graphics/SVG/1.1/DTD/svg11.dtd">
<svg version="1.1" id="Mountain" xmlns="http://www.w3.org/2000/svg" xmlns:xlink="http://www.w3.org/1999/xlink" x="0px" y="0px"
	 width="120px" height="90px" viewBox="0 0 120 90" style="enable-background:new 0 0 120 90;" xml:space="preserve">
<style type="text/css">
<![CDATA[
	.st0{fill:#FFFFFF;}
]]>
</style>
<g>
	<polygon class="st0" points="16.9,77.1 27.2,50.6 32.5,53.7 44.9,22.6 51.3,27.1 58.2,12.9 77.9,44.4 82.7,39.2 104.4,77.1 	"/>
</g>
<path d="M82.9,37.5L78,42.7L58.1,10.8l-7.2,14.8L44.5,21L32,52.3l-5.3-3.1l-11.3,29h90.7L82.9,37.5z M28.1,68.6V53.4l7.5,4.8
	L28.1,68.6z M46.2,35.5v-9.6l3.5,2.4L46.2,35.5z M58.4,16.8l17.3,27.7L67.1,53l-8.8-6.3L58.4,16.8z M69.5,75H52.4V46.6L79.9,65
	L69.5,75z M82.3,62.3V42.4l14.5,24.9l-9.4-9.5L82.3,62.3z M87.8,61.7l13.5,14.1H87.8V61.7z"/>
</svg>
