<?xml version="1.0" encoding="utf-8"?>
<!-- Generator: Adobe Illustrator 14.0.0, SVG Export Plug-In . SVG Version: 6.00 Build 43363)  -->
<!DOCTYPE svg PUBLIC "-//W3C//DTD SVG 1.1//EN" "http://www.w3.org/Graphics/SVG/1.1/DTD/svg11.dtd">
<svg version="1.1" id="Rabble" xmlns="http://www.w3.org/2000/svg" xmlns:xlink="http://www.w3.org/1999/xlink" x="0px" y="0px"
	 width="120px" height="90px" viewBox="0 0 120 90" style="enable-background:new 0 0 120 90;" xml:space="preserve">
<style type="text/css">
<![CDATA[
	.st0{fill:none;stroke:#000000;stroke-width:3;stroke-linecap:square;}
	.st1{fill:none;stroke:#000000;stroke-width:2;}
	.st2{fill:none;stroke:#000000;stroke-width:3;}
]]>
</style>
<g>
	<line class="st2" x1="44.7" y1="32.5" x2="82.3" y2="70"/>
	<g>
		<g>
			<path class="st1" d="M90.5,72.8L87,69.3c-1.2-1.2-3.1-1.2-4.2,0l-1.2,1.2c-1.2,1.2-1.2,3.1,0,4.2l3.4,3.4"/>
		</g>
		<line class="st0" x1="85" y1="78.2" x2="90.5" y2="72.8"/>
	</g>
	<path d="M32.7,11.9l0.4,2.5l11,11c1,1,1,2.6,0,3.5l-0.4,0.4L30.9,16.5l-2.5-0.4l0.4,2.5l12.7,12.7l-0.4,0.4c-1,1-2.6,1-3.5,0
		l-11-11l-2.5-0.4l0.4,2.5l11,11c2.1,2.1,5.6,2.1,7.8,0l2.8-2.8c2.1-2.1,2.1-5.6,0-7.8l-11-11L32.7,11.9z"/>
</g>
<g>
	<line class="st2" x1="75.3" y1="32.5" x2="37.7" y2="70"/>
	<g>
		<g>
			<path class="st1" d="M29.5,72.8l3.4-3.4c1.2-1.2,3.1-1.2,4.2,0l1.2,1.2c1.2,1.2,1.2,3.1,0,4.2l-3.4,3.4"/>
		</g>
		<line class="st0" x1="34.9" y1="78.2" x2="29.5" y2="72.8"/>
	</g>
	<path d="M87.3,11.9l-0.4,2.5l-11,11c-1,1-1,2.6,0,3.5l0.4,0.4L89,16.5l2.5-0.4l-0.4,2.5L78.4,31.4l0.4,0.4c1,1,2.6,1,3.5,0l11-11
		l2.5-0.4l-0.4,2.5l-11,11c-2.1,2.1-5.6,2.1-7.8,0L73.8,31c-2.1-2.1-2.1-5.6,0-7.8l11-11L87.3,11.9z"/>
</g>
</svg>
