<?xml version="1.0" encoding="utf-8"?>
<!-- Generator: Adobe Illustrator 14.0.0, SVG Export Plug-In . SVG Version: 6.00 Build 43363)  -->
<!DOCTYPE svg PUBLIC "-//W3C//DTD SVG 1.1//EN" "http://www.w3.org/Graphics/SVG/1.1/DTD/svg11.dtd">
<svg version="1.1" id="Spears" xmlns="http://www.w3.org/2000/svg" xmlns:xlink="http://www.w3.org/1999/xlink" x="0px" y="0px"
	 width="120px" height="90px" viewBox="0 0 120 90" style="enable-background:new 0 0 120 90;" xml:space="preserve">
<style type="text/css">
<![CDATA[
	.st0{fill:none;stroke:#000000;stroke-width:2;}
]]>
</style>
<line class="st0" x1="60" y1="58.2" x2="60" y2="83.2"/>
<line class="st0" x1="60" y1="14.1" x2="60" y2="31.7"/>
<polygon points="60,15.8 56.1,17.5 60,6.8 63.9,17.5 "/>
<line class="st0" x1="69.1" y1="54.1" x2="87" y2="72"/>
<line class="st0" x1="38.1" y1="23.2" x2="50.6" y2="35.6"/>
<polygon points="39.3,24.4 37.8,28.4 33,18 43.3,22.8 "/>
<line class="st0" x1="50.6" y1="54.4" x2="33" y2="72"/>
<line class="st0" x1="81.9" y1="23.2" x2="69.3" y2="35.8"/>
<polygon points="80.6,24.4 82.2,28.4 87,18 76.7,22.8 "/>
<g>
	<path d="M60,33.1c6.5,0,11.9,5.3,11.9,11.9S66.5,56.9,60,56.9S48.1,51.5,48.1,45S53.5,33.1,60,33.1 M60,31.1
		c-7.7,0-13.9,6.2-13.9,13.9S52.3,58.9,60,58.9S73.9,52.7,73.9,45S67.7,31.1,60,31.1L60,31.1z"/>
</g>
<path d="M60,34.4c-5.9,0-10.6,4.8-10.6,10.6S54.1,55.6,60,55.6S70.6,50.9,70.6,45S65.9,34.4,60,34.4z M60,48.2
	c-1.8,0-3.2-1.4-3.2-3.2c0-1.8,1.4-3.2,3.2-3.2c1.8,0,3.2,1.4,3.2,3.2C63.2,46.8,61.8,48.2,60,48.2z"/>
</svg>
